<svg width="457" height="525" viewBox="0 0 457 525" fill="none" xmlns="http://www.w3.org/2000/svg">
<path d="M53 63L135 186.5L293.5 225.5L397.5 63H307L226.5 195L144 63H53Z" fill="#FC1A26"/>
<path d="M171 262.5L132.5 203L286 243L274 262.5L412.5 463.5H314L224.5 323.5L138.5 463.5H44L171 262.5Z" fill="#FAFAFA"/>
<path d="M235 264C235 266.355 234.491 268.59 233.578 270.604L307 368L329.5 418.5L289.5 381.5L219.413 279.995C219.276 279.998 219.138 280 219 280C217.587 280 216.217 279.817 214.912 279.473L167.5 347L127 384L148.5 340L204.177 270.034C203.418 268.172 203 266.135 203 264C203 255.163 210.163 248 219 248C227.837 248 235 255.163 235 264Z" fill="black"/>
</svg>
