<svg width="108" height="50" viewBox="0 0 108 50" fill="none" xmlns="http://www.w3.org/2000/svg">
<path d="M82.5495 49.4002C77.6962 49.4002 73.5362 48.6635 70.0695 47.1902C66.6029 45.6302 63.6562 43.5935 61.2295 41.0802C58.8895 38.5669 56.7662 35.8369 54.8595 32.8902C52.9529 29.8569 51.1329 26.8669 49.3995 23.9202C47.6662 20.8869 45.7162 18.1135 43.5495 15.6002C41.4695 13.0869 38.9995 11.0935 36.1395 9.6202C33.2795 8.0602 29.7695 7.2802 25.6095 7.2802C22.2295 7.2802 19.1529 8.0602 16.3795 9.6202C13.6929 11.1802 11.5695 13.2602 10.0095 15.8602C8.44952 18.4602 7.66952 21.4069 7.66952 24.7002C7.66952 27.9935 8.44952 30.9402 10.0095 33.5402C11.5695 36.1402 13.6929 38.2202 16.3795 39.7802C19.1529 41.3402 22.2295 42.1202 25.6095 42.1202C29.7695 42.1202 33.2795 41.3835 36.1395 39.9102C38.9995 38.3502 41.4695 36.3135 43.5495 33.8002C45.7162 31.2869 47.6662 28.5569 49.3995 25.6102C51.1329 22.5769 52.9529 19.5869 54.8595 16.6402C56.7662 13.6069 58.8895 10.8335 61.2295 8.32021C63.6562 5.80687 66.6029 3.81354 70.0695 2.34021C73.5362 0.780207 77.6962 0.000207153 82.5495 0.000208002C87.4029 0.000208851 91.6929 1.08354 95.4195 3.25021C99.1462 5.33021 102.093 8.23354 104.26 11.9602C106.513 15.6002 107.64 19.8035 107.64 24.5702C107.64 29.3369 106.513 33.5835 104.26 37.3102C102.093 41.0369 99.1462 43.9835 95.4195 46.1502C91.6929 48.3169 87.4029 49.4002 82.5495 49.4002ZM25.2195 49.4002C20.4529 49.4002 16.1629 48.3169 12.3495 46.1502C8.53619 43.9835 5.50285 41.0369 3.24952 37.3102C1.08286 33.5835 -0.000477378 29.3802 -0.000476559 24.7002C-0.000475726 19.9335 1.08286 15.6869 3.24953 11.9602C5.50286 8.23353 8.53619 5.33019 12.3495 3.25019C16.1629 1.08353 20.4529 0.000197145 25.2195 0.000197978C30.0729 0.000198827 34.1895 0.7802 37.5695 2.3402C41.0362 3.81354 43.9829 5.80687 46.4095 8.3202C48.8362 10.8335 50.9595 13.5635 52.7795 16.5102C54.6862 19.4569 56.5062 22.4469 58.2395 25.4802C60.0595 28.5135 62.0095 31.2869 64.0895 33.8002C66.1695 36.3135 68.6395 38.3502 71.4995 39.9102C74.3595 41.3835 77.8695 42.1202 82.0295 42.1202C85.4962 42.1202 88.5729 41.3402 91.2595 39.7802C93.9462 38.2202 96.0695 36.1402 97.6295 33.5402C99.1895 30.8535 99.9695 27.8635 99.9695 24.5702C99.9695 21.2769 99.1895 18.3302 97.6295 15.7302C96.0695 13.1302 93.9462 11.0935 91.2595 9.62021C88.5729 8.06021 85.4962 7.28021 82.0295 7.28021C77.8695 7.28021 74.3595 8.06021 71.4995 9.62021C68.6395 11.0935 66.1695 13.0869 64.0895 15.6002C62.0095 18.1135 60.0595 20.8869 58.2395 23.9202C56.5062 26.8669 54.6862 29.8569 52.7795 32.8902C50.9595 35.8369 48.8362 38.5669 46.4095 41.0802C43.9829 43.5935 41.0362 45.6302 37.5695 47.1902C34.1895 48.6635 30.0729 49.4002 25.2195 49.4002Z" fill="#E1E1E1"/>
</svg>
